<mxfile host="app.diagrams.net" modified="2022-11-08T14:56:36.604Z" agent="5.0 (Windows NT 10.0; Win64; x64) AppleWebKit/537.36 (KHTML, like Gecko) Chrome/107.0.0.0 Safari/537.36" etag="7QGM0wMD58U2WQRWj9Sx" version="20.5.3" type="github">
  <diagram id="KY_-lL4Hj6zXms4pSgZJ" name="Page-1">
    <mxGraphModel dx="400" dy="448" grid="1" gridSize="10" guides="1" tooltips="1" connect="1" arrows="1" fold="1" page="1" pageScale="1" pageWidth="850" pageHeight="1100" math="0" shadow="0">
      <root>
        <mxCell id="0" />
        <mxCell id="1" parent="0" />
        <mxCell id="sxEvqwQps5us2x7c72E0-81" style="edgeStyle=none;rounded=0;orthogonalLoop=1;jettySize=auto;html=1;exitX=0;exitY=0.75;exitDx=0;exitDy=0;entryX=0.5;entryY=0;entryDx=0;entryDy=0;fontSize=6;" edge="1" parent="1" source="sxEvqwQps5us2x7c72E0-2" target="sxEvqwQps5us2x7c72E0-19">
          <mxGeometry relative="1" as="geometry" />
        </mxCell>
        <mxCell id="sxEvqwQps5us2x7c72E0-82" style="edgeStyle=none;rounded=0;orthogonalLoop=1;jettySize=auto;html=1;exitX=0;exitY=1;exitDx=0;exitDy=0;entryX=0.5;entryY=0;entryDx=0;entryDy=0;fontSize=6;" edge="1" parent="1" source="sxEvqwQps5us2x7c72E0-2" target="sxEvqwQps5us2x7c72E0-14">
          <mxGeometry relative="1" as="geometry" />
        </mxCell>
        <mxCell id="sxEvqwQps5us2x7c72E0-83" style="edgeStyle=none;rounded=0;orthogonalLoop=1;jettySize=auto;html=1;exitX=0.25;exitY=1;exitDx=0;exitDy=0;entryX=0.5;entryY=0;entryDx=0;entryDy=0;fontSize=6;" edge="1" parent="1" source="sxEvqwQps5us2x7c72E0-2" target="sxEvqwQps5us2x7c72E0-15">
          <mxGeometry relative="1" as="geometry" />
        </mxCell>
        <mxCell id="sxEvqwQps5us2x7c72E0-84" style="edgeStyle=none;rounded=0;orthogonalLoop=1;jettySize=auto;html=1;exitX=0.5;exitY=1;exitDx=0;exitDy=0;entryX=0.5;entryY=0;entryDx=0;entryDy=0;fontSize=6;" edge="1" parent="1" source="sxEvqwQps5us2x7c72E0-2" target="sxEvqwQps5us2x7c72E0-17">
          <mxGeometry relative="1" as="geometry" />
        </mxCell>
        <mxCell id="sxEvqwQps5us2x7c72E0-85" style="edgeStyle=none;rounded=0;orthogonalLoop=1;jettySize=auto;html=1;exitX=0.75;exitY=1;exitDx=0;exitDy=0;entryX=0.5;entryY=0;entryDx=0;entryDy=0;fontSize=6;" edge="1" parent="1" source="sxEvqwQps5us2x7c72E0-2" target="sxEvqwQps5us2x7c72E0-16">
          <mxGeometry relative="1" as="geometry" />
        </mxCell>
        <mxCell id="sxEvqwQps5us2x7c72E0-86" style="edgeStyle=none;rounded=0;orthogonalLoop=1;jettySize=auto;html=1;exitX=1;exitY=1;exitDx=0;exitDy=0;entryX=0.5;entryY=0;entryDx=0;entryDy=0;fontSize=6;" edge="1" parent="1" source="sxEvqwQps5us2x7c72E0-2" target="sxEvqwQps5us2x7c72E0-18">
          <mxGeometry relative="1" as="geometry" />
        </mxCell>
        <mxCell id="sxEvqwQps5us2x7c72E0-87" style="edgeStyle=none;rounded=0;orthogonalLoop=1;jettySize=auto;html=1;exitX=1;exitY=0.75;exitDx=0;exitDy=0;entryX=0.5;entryY=0;entryDx=0;entryDy=0;fontSize=6;" edge="1" parent="1" source="sxEvqwQps5us2x7c72E0-2" target="sxEvqwQps5us2x7c72E0-21">
          <mxGeometry relative="1" as="geometry" />
        </mxCell>
        <mxCell id="sxEvqwQps5us2x7c72E0-88" style="edgeStyle=none;rounded=0;orthogonalLoop=1;jettySize=auto;html=1;exitX=1;exitY=0.5;exitDx=0;exitDy=0;entryX=0.5;entryY=0;entryDx=0;entryDy=0;fontSize=6;" edge="1" parent="1" source="sxEvqwQps5us2x7c72E0-2" target="sxEvqwQps5us2x7c72E0-20">
          <mxGeometry relative="1" as="geometry" />
        </mxCell>
        <mxCell id="sxEvqwQps5us2x7c72E0-2" value="Front Page" style="rounded=0;whiteSpace=wrap;html=1;fontSize=8;" vertex="1" parent="1">
          <mxGeometry x="360" y="190" width="120" height="60" as="geometry" />
        </mxCell>
        <mxCell id="sxEvqwQps5us2x7c72E0-4" value="New" style="rounded=0;whiteSpace=wrap;html=1;fontSize=8;" vertex="1" parent="1">
          <mxGeometry x="30" y="270" width="60" height="30" as="geometry" />
        </mxCell>
        <mxCell id="sxEvqwQps5us2x7c72E0-13" style="edgeStyle=none;rounded=0;orthogonalLoop=1;jettySize=auto;html=1;exitX=1;exitY=1;exitDx=0;exitDy=0;fontSize=8;" edge="1" parent="1" source="sxEvqwQps5us2x7c72E0-4" target="sxEvqwQps5us2x7c72E0-4">
          <mxGeometry relative="1" as="geometry" />
        </mxCell>
        <mxCell id="sxEvqwQps5us2x7c72E0-14" value="Characters" style="rounded=0;whiteSpace=wrap;html=1;fontSize=8;" vertex="1" parent="1">
          <mxGeometry x="210" y="270" width="60" height="30" as="geometry" />
        </mxCell>
        <mxCell id="sxEvqwQps5us2x7c72E0-15" value="Apparel" style="rounded=0;whiteSpace=wrap;html=1;fontSize=8;" vertex="1" parent="1">
          <mxGeometry x="300" y="270" width="60" height="30" as="geometry" />
        </mxCell>
        <mxCell id="sxEvqwQps5us2x7c72E0-16" value="Home" style="rounded=0;whiteSpace=wrap;html=1;fontSize=8;" vertex="1" parent="1">
          <mxGeometry x="480" y="270" width="60" height="30" as="geometry" />
        </mxCell>
        <mxCell id="sxEvqwQps5us2x7c72E0-17" value="Bags+" style="rounded=0;whiteSpace=wrap;html=1;fontSize=8;" vertex="1" parent="1">
          <mxGeometry x="390" y="270" width="60" height="30" as="geometry" />
        </mxCell>
        <mxCell id="sxEvqwQps5us2x7c72E0-18" value="Plush &amp;amp; Toys" style="rounded=0;whiteSpace=wrap;html=1;fontSize=8;" vertex="1" parent="1">
          <mxGeometry x="570" y="270" width="60" height="30" as="geometry" />
        </mxCell>
        <mxCell id="sxEvqwQps5us2x7c72E0-19" value="Collabs" style="rounded=0;whiteSpace=wrap;html=1;fontSize=8;" vertex="1" parent="1">
          <mxGeometry x="120" y="270" width="60" height="30" as="geometry" />
        </mxCell>
        <mxCell id="sxEvqwQps5us2x7c72E0-20" value="Sale" style="rounded=0;whiteSpace=wrap;html=1;fontSize=8;" vertex="1" parent="1">
          <mxGeometry x="750" y="270" width="60" height="30" as="geometry" />
        </mxCell>
        <mxCell id="sxEvqwQps5us2x7c72E0-21" value="Stationary" style="rounded=0;whiteSpace=wrap;html=1;fontSize=8;" vertex="1" parent="1">
          <mxGeometry x="660" y="270" width="60" height="30" as="geometry" />
        </mxCell>
        <mxCell id="sxEvqwQps5us2x7c72E0-24" value="&lt;font style=&quot;font-size: 6px;&quot;&gt;Baggu&lt;/font&gt;" style="rounded=0;whiteSpace=wrap;html=1;fontSize=8;" vertex="1" parent="1">
          <mxGeometry x="120" y="310" width="30" height="20" as="geometry" />
        </mxCell>
        <mxCell id="sxEvqwQps5us2x7c72E0-25" value="&lt;font style=&quot;font-size: 6px;&quot;&gt;Gundam&lt;/font&gt;" style="rounded=0;whiteSpace=wrap;html=1;fontSize=8;" vertex="1" parent="1">
          <mxGeometry x="150" y="310" width="30" height="20" as="geometry" />
        </mxCell>
        <mxCell id="sxEvqwQps5us2x7c72E0-26" value="&lt;span style=&quot;font-size: 6px;&quot;&gt;Figpin&lt;/span&gt;" style="rounded=0;whiteSpace=wrap;html=1;fontSize=8;" vertex="1" parent="1">
          <mxGeometry x="120" y="330" width="30" height="20" as="geometry" />
        </mxCell>
        <mxCell id="sxEvqwQps5us2x7c72E0-27" value="&lt;font style=&quot;font-size: 6px;&quot;&gt;Igloo&lt;/font&gt;" style="rounded=0;whiteSpace=wrap;html=1;fontSize=8;" vertex="1" parent="1">
          <mxGeometry x="150" y="330" width="30" height="20" as="geometry" />
        </mxCell>
        <mxCell id="sxEvqwQps5us2x7c72E0-28" value="&lt;font style=&quot;font-size: 6px;&quot;&gt;Chococat&lt;/font&gt;" style="rounded=0;whiteSpace=wrap;html=1;fontSize=8;" vertex="1" parent="1">
          <mxGeometry x="210" y="310" width="30" height="20" as="geometry" />
        </mxCell>
        <mxCell id="sxEvqwQps5us2x7c72E0-29" value="&lt;font style=&quot;font-size: 6px;&quot;&gt;Kuromi&lt;/font&gt;" style="rounded=0;whiteSpace=wrap;html=1;fontSize=8;" vertex="1" parent="1">
          <mxGeometry x="240" y="310" width="30" height="20" as="geometry" />
        </mxCell>
        <mxCell id="sxEvqwQps5us2x7c72E0-30" value="&lt;span style=&quot;font-size: 6px;&quot;&gt;Keroppi&lt;/span&gt;" style="rounded=0;whiteSpace=wrap;html=1;fontSize=8;" vertex="1" parent="1">
          <mxGeometry x="210" y="330" width="30" height="20" as="geometry" />
        </mxCell>
        <mxCell id="sxEvqwQps5us2x7c72E0-31" value="&lt;font style=&quot;font-size: 6px;&quot;&gt;My Melody&lt;/font&gt;" style="rounded=0;whiteSpace=wrap;html=1;fontSize=8;" vertex="1" parent="1">
          <mxGeometry x="240" y="330" width="30" height="20" as="geometry" />
        </mxCell>
        <mxCell id="sxEvqwQps5us2x7c72E0-32" value="&lt;font style=&quot;font-size: 6px;&quot;&gt;Tops&lt;/font&gt;" style="rounded=0;whiteSpace=wrap;html=1;fontSize=8;" vertex="1" parent="1">
          <mxGeometry x="300" y="310" width="30" height="20" as="geometry" />
        </mxCell>
        <mxCell id="sxEvqwQps5us2x7c72E0-33" value="&lt;font style=&quot;font-size: 6px;&quot;&gt;Dresses&lt;/font&gt;" style="rounded=0;whiteSpace=wrap;html=1;fontSize=8;" vertex="1" parent="1">
          <mxGeometry x="330" y="310" width="30" height="20" as="geometry" />
        </mxCell>
        <mxCell id="sxEvqwQps5us2x7c72E0-34" value="&lt;span style=&quot;font-size: 6px;&quot;&gt;Bottoms&lt;/span&gt;" style="rounded=0;whiteSpace=wrap;html=1;fontSize=8;" vertex="1" parent="1">
          <mxGeometry x="300" y="330" width="30" height="20" as="geometry" />
        </mxCell>
        <mxCell id="sxEvqwQps5us2x7c72E0-35" value="&lt;span style=&quot;font-size: 6px;&quot;&gt;Outerwear&lt;/span&gt;" style="rounded=0;whiteSpace=wrap;html=1;fontSize=8;" vertex="1" parent="1">
          <mxGeometry x="330" y="330" width="30" height="20" as="geometry" />
        </mxCell>
        <mxCell id="sxEvqwQps5us2x7c72E0-36" value="&lt;font style=&quot;font-size: 6px;&quot;&gt;Handbags&lt;/font&gt;" style="rounded=0;whiteSpace=wrap;html=1;fontSize=8;" vertex="1" parent="1">
          <mxGeometry x="390" y="310" width="30" height="20" as="geometry" />
        </mxCell>
        <mxCell id="sxEvqwQps5us2x7c72E0-37" value="&lt;font style=&quot;font-size: 6px;&quot;&gt;Jewelry&lt;/font&gt;" style="rounded=0;whiteSpace=wrap;html=1;fontSize=8;" vertex="1" parent="1">
          <mxGeometry x="420" y="310" width="30" height="20" as="geometry" />
        </mxCell>
        <mxCell id="sxEvqwQps5us2x7c72E0-38" value="&lt;span style=&quot;font-size: 6px;&quot;&gt;Shoes&lt;/span&gt;" style="rounded=0;whiteSpace=wrap;html=1;fontSize=8;" vertex="1" parent="1">
          <mxGeometry x="390" y="330" width="30" height="20" as="geometry" />
        </mxCell>
        <mxCell id="sxEvqwQps5us2x7c72E0-39" value="&lt;span style=&quot;font-size: 6px;&quot;&gt;Wallets&lt;/span&gt;" style="rounded=0;whiteSpace=wrap;html=1;fontSize=8;" vertex="1" parent="1">
          <mxGeometry x="420" y="330" width="30" height="20" as="geometry" />
        </mxCell>
        <mxCell id="sxEvqwQps5us2x7c72E0-40" value="&lt;font style=&quot;font-size: 6px;&quot;&gt;Beauty&lt;/font&gt;" style="rounded=0;whiteSpace=wrap;html=1;fontSize=8;" vertex="1" parent="1">
          <mxGeometry x="480" y="310" width="30" height="20" as="geometry" />
        </mxCell>
        <mxCell id="sxEvqwQps5us2x7c72E0-41" value="&lt;font style=&quot;font-size: 6px;&quot;&gt;Kitchen&lt;/font&gt;" style="rounded=0;whiteSpace=wrap;html=1;fontSize=8;" vertex="1" parent="1">
          <mxGeometry x="510" y="310" width="30" height="20" as="geometry" />
        </mxCell>
        <mxCell id="sxEvqwQps5us2x7c72E0-42" value="&lt;span style=&quot;font-size: 6px;&quot;&gt;Bath&lt;/span&gt;" style="rounded=0;whiteSpace=wrap;html=1;fontSize=8;" vertex="1" parent="1">
          <mxGeometry x="480" y="330" width="30" height="20" as="geometry" />
        </mxCell>
        <mxCell id="sxEvqwQps5us2x7c72E0-43" value="&lt;span style=&quot;font-size: 6px;&quot;&gt;Travel&lt;/span&gt;" style="rounded=0;whiteSpace=wrap;html=1;fontSize=8;" vertex="1" parent="1">
          <mxGeometry x="510" y="330" width="30" height="20" as="geometry" />
        </mxCell>
        <mxCell id="sxEvqwQps5us2x7c72E0-44" value="&lt;font style=&quot;font-size: 6px;&quot;&gt;Plush&lt;/font&gt;" style="rounded=0;whiteSpace=wrap;html=1;fontSize=8;" vertex="1" parent="1">
          <mxGeometry x="570" y="310" width="30" height="20" as="geometry" />
        </mxCell>
        <mxCell id="sxEvqwQps5us2x7c72E0-45" value="&lt;font style=&quot;font-size: 6px;&quot;&gt;Cushions&lt;/font&gt;" style="rounded=0;whiteSpace=wrap;html=1;fontSize=8;" vertex="1" parent="1">
          <mxGeometry x="600" y="310" width="30" height="20" as="geometry" />
        </mxCell>
        <mxCell id="sxEvqwQps5us2x7c72E0-46" value="&lt;span style=&quot;font-size: 6px;&quot;&gt;Mascots&lt;/span&gt;" style="rounded=0;whiteSpace=wrap;html=1;fontSize=8;" vertex="1" parent="1">
          <mxGeometry x="570" y="330" width="30" height="20" as="geometry" />
        </mxCell>
        <mxCell id="sxEvqwQps5us2x7c72E0-47" value="&lt;span style=&quot;font-size: 6px;&quot;&gt;Collectibles&lt;/span&gt;" style="rounded=0;whiteSpace=wrap;html=1;fontSize=8;" vertex="1" parent="1">
          <mxGeometry x="600" y="330" width="30" height="20" as="geometry" />
        </mxCell>
        <mxCell id="sxEvqwQps5us2x7c72E0-48" value="&lt;font style=&quot;font-size: 6px;&quot;&gt;Memo Pads&lt;/font&gt;" style="rounded=0;whiteSpace=wrap;html=1;fontSize=8;" vertex="1" parent="1">
          <mxGeometry x="660" y="310" width="30" height="20" as="geometry" />
        </mxCell>
        <mxCell id="sxEvqwQps5us2x7c72E0-49" value="&lt;font style=&quot;font-size: 6px;&quot;&gt;Stickers&lt;/font&gt;" style="rounded=0;whiteSpace=wrap;html=1;fontSize=8;" vertex="1" parent="1">
          <mxGeometry x="690" y="310" width="30" height="20" as="geometry" />
        </mxCell>
        <mxCell id="sxEvqwQps5us2x7c72E0-50" value="&lt;span style=&quot;font-size: 6px;&quot;&gt;Notebooks&lt;/span&gt;" style="rounded=0;whiteSpace=wrap;html=1;fontSize=8;" vertex="1" parent="1">
          <mxGeometry x="660" y="330" width="30" height="20" as="geometry" />
        </mxCell>
        <mxCell id="sxEvqwQps5us2x7c72E0-51" value="&lt;span style=&quot;font-size: 6px;&quot;&gt;Pens and Pencils&lt;/span&gt;" style="rounded=0;whiteSpace=wrap;html=1;fontSize=8;" vertex="1" parent="1">
          <mxGeometry x="690" y="330" width="30" height="20" as="geometry" />
        </mxCell>
        <mxCell id="sxEvqwQps5us2x7c72E0-52" value="" style="shape=curlyBracket;whiteSpace=wrap;html=1;rounded=1;flipH=1;labelPosition=right;verticalLabelPosition=middle;align=left;verticalAlign=middle;fontSize=6;" vertex="1" parent="1">
          <mxGeometry x="180" y="280" width="20" height="60" as="geometry" />
        </mxCell>
        <mxCell id="sxEvqwQps5us2x7c72E0-53" value="" style="shape=curlyBracket;whiteSpace=wrap;html=1;rounded=1;flipH=1;labelPosition=right;verticalLabelPosition=middle;align=left;verticalAlign=middle;fontSize=6;" vertex="1" parent="1">
          <mxGeometry x="180" y="290" width="10" height="30" as="geometry" />
        </mxCell>
        <mxCell id="sxEvqwQps5us2x7c72E0-54" value="" style="shape=curlyBracket;whiteSpace=wrap;html=1;rounded=1;flipH=1;labelPosition=right;verticalLabelPosition=middle;align=left;verticalAlign=middle;fontSize=6;" vertex="1" parent="1">
          <mxGeometry x="270" y="280" width="20" height="60" as="geometry" />
        </mxCell>
        <mxCell id="sxEvqwQps5us2x7c72E0-55" value="" style="shape=curlyBracket;whiteSpace=wrap;html=1;rounded=1;flipH=1;labelPosition=right;verticalLabelPosition=middle;align=left;verticalAlign=middle;fontSize=6;" vertex="1" parent="1">
          <mxGeometry x="270" y="290" width="10" height="30" as="geometry" />
        </mxCell>
        <mxCell id="sxEvqwQps5us2x7c72E0-56" value="" style="shape=curlyBracket;whiteSpace=wrap;html=1;rounded=1;flipH=1;labelPosition=right;verticalLabelPosition=middle;align=left;verticalAlign=middle;fontSize=6;" vertex="1" parent="1">
          <mxGeometry x="360" y="280" width="20" height="60" as="geometry" />
        </mxCell>
        <mxCell id="sxEvqwQps5us2x7c72E0-57" value="" style="shape=curlyBracket;whiteSpace=wrap;html=1;rounded=1;flipH=1;labelPosition=right;verticalLabelPosition=middle;align=left;verticalAlign=middle;fontSize=6;" vertex="1" parent="1">
          <mxGeometry x="360" y="290" width="10" height="30" as="geometry" />
        </mxCell>
        <mxCell id="sxEvqwQps5us2x7c72E0-58" value="" style="shape=curlyBracket;whiteSpace=wrap;html=1;rounded=1;flipH=1;labelPosition=right;verticalLabelPosition=middle;align=left;verticalAlign=middle;fontSize=6;" vertex="1" parent="1">
          <mxGeometry x="450" y="280" width="20" height="60" as="geometry" />
        </mxCell>
        <mxCell id="sxEvqwQps5us2x7c72E0-59" value="" style="shape=curlyBracket;whiteSpace=wrap;html=1;rounded=1;flipH=1;labelPosition=right;verticalLabelPosition=middle;align=left;verticalAlign=middle;fontSize=6;" vertex="1" parent="1">
          <mxGeometry x="450" y="290" width="10" height="30" as="geometry" />
        </mxCell>
        <mxCell id="sxEvqwQps5us2x7c72E0-60" value="" style="shape=curlyBracket;whiteSpace=wrap;html=1;rounded=1;flipH=1;labelPosition=right;verticalLabelPosition=middle;align=left;verticalAlign=middle;fontSize=6;" vertex="1" parent="1">
          <mxGeometry x="540" y="280" width="20" height="60" as="geometry" />
        </mxCell>
        <mxCell id="sxEvqwQps5us2x7c72E0-61" value="" style="shape=curlyBracket;whiteSpace=wrap;html=1;rounded=1;flipH=1;labelPosition=right;verticalLabelPosition=middle;align=left;verticalAlign=middle;fontSize=6;" vertex="1" parent="1">
          <mxGeometry x="540" y="290" width="10" height="30" as="geometry" />
        </mxCell>
        <mxCell id="sxEvqwQps5us2x7c72E0-62" value="" style="shape=curlyBracket;whiteSpace=wrap;html=1;rounded=1;flipH=1;labelPosition=right;verticalLabelPosition=middle;align=left;verticalAlign=middle;fontSize=6;" vertex="1" parent="1">
          <mxGeometry x="630" y="280" width="20" height="60" as="geometry" />
        </mxCell>
        <mxCell id="sxEvqwQps5us2x7c72E0-63" value="" style="shape=curlyBracket;whiteSpace=wrap;html=1;rounded=1;flipH=1;labelPosition=right;verticalLabelPosition=middle;align=left;verticalAlign=middle;fontSize=6;" vertex="1" parent="1">
          <mxGeometry x="630" y="290" width="10" height="30" as="geometry" />
        </mxCell>
        <mxCell id="sxEvqwQps5us2x7c72E0-64" value="" style="shape=curlyBracket;whiteSpace=wrap;html=1;rounded=1;labelPosition=left;verticalLabelPosition=middle;align=right;verticalAlign=middle;fontSize=6;" vertex="1" parent="1">
          <mxGeometry x="100" y="280" width="20" height="60" as="geometry" />
        </mxCell>
        <mxCell id="sxEvqwQps5us2x7c72E0-65" value="" style="shape=curlyBracket;whiteSpace=wrap;html=1;rounded=1;labelPosition=left;verticalLabelPosition=middle;align=right;verticalAlign=middle;fontSize=6;" vertex="1" parent="1">
          <mxGeometry x="110" y="290" width="10" height="30" as="geometry" />
        </mxCell>
        <mxCell id="sxEvqwQps5us2x7c72E0-67" value="" style="shape=curlyBracket;whiteSpace=wrap;html=1;rounded=1;labelPosition=left;verticalLabelPosition=middle;align=right;verticalAlign=middle;fontSize=6;" vertex="1" parent="1">
          <mxGeometry x="190" y="280" width="20" height="60" as="geometry" />
        </mxCell>
        <mxCell id="sxEvqwQps5us2x7c72E0-68" value="" style="shape=curlyBracket;whiteSpace=wrap;html=1;rounded=1;labelPosition=left;verticalLabelPosition=middle;align=right;verticalAlign=middle;fontSize=6;" vertex="1" parent="1">
          <mxGeometry x="200" y="290" width="10" height="30" as="geometry" />
        </mxCell>
        <mxCell id="sxEvqwQps5us2x7c72E0-69" value="" style="shape=curlyBracket;whiteSpace=wrap;html=1;rounded=1;labelPosition=left;verticalLabelPosition=middle;align=right;verticalAlign=middle;fontSize=6;" vertex="1" parent="1">
          <mxGeometry x="280" y="280" width="20" height="60" as="geometry" />
        </mxCell>
        <mxCell id="sxEvqwQps5us2x7c72E0-70" value="" style="shape=curlyBracket;whiteSpace=wrap;html=1;rounded=1;labelPosition=left;verticalLabelPosition=middle;align=right;verticalAlign=middle;fontSize=6;" vertex="1" parent="1">
          <mxGeometry x="290" y="290" width="10" height="30" as="geometry" />
        </mxCell>
        <mxCell id="sxEvqwQps5us2x7c72E0-71" value="" style="shape=curlyBracket;whiteSpace=wrap;html=1;rounded=1;labelPosition=left;verticalLabelPosition=middle;align=right;verticalAlign=middle;fontSize=6;" vertex="1" parent="1">
          <mxGeometry x="370" y="280" width="20" height="60" as="geometry" />
        </mxCell>
        <mxCell id="sxEvqwQps5us2x7c72E0-72" value="" style="shape=curlyBracket;whiteSpace=wrap;html=1;rounded=1;labelPosition=left;verticalLabelPosition=middle;align=right;verticalAlign=middle;fontSize=6;" vertex="1" parent="1">
          <mxGeometry x="380" y="290" width="10" height="30" as="geometry" />
        </mxCell>
        <mxCell id="sxEvqwQps5us2x7c72E0-73" value="" style="shape=curlyBracket;whiteSpace=wrap;html=1;rounded=1;labelPosition=left;verticalLabelPosition=middle;align=right;verticalAlign=middle;fontSize=6;" vertex="1" parent="1">
          <mxGeometry x="460" y="280" width="20" height="60" as="geometry" />
        </mxCell>
        <mxCell id="sxEvqwQps5us2x7c72E0-74" value="" style="shape=curlyBracket;whiteSpace=wrap;html=1;rounded=1;labelPosition=left;verticalLabelPosition=middle;align=right;verticalAlign=middle;fontSize=6;" vertex="1" parent="1">
          <mxGeometry x="470" y="290" width="10" height="30" as="geometry" />
        </mxCell>
        <mxCell id="sxEvqwQps5us2x7c72E0-75" value="" style="shape=curlyBracket;whiteSpace=wrap;html=1;rounded=1;labelPosition=left;verticalLabelPosition=middle;align=right;verticalAlign=middle;fontSize=6;" vertex="1" parent="1">
          <mxGeometry x="550" y="280" width="20" height="60" as="geometry" />
        </mxCell>
        <mxCell id="sxEvqwQps5us2x7c72E0-76" value="" style="shape=curlyBracket;whiteSpace=wrap;html=1;rounded=1;labelPosition=left;verticalLabelPosition=middle;align=right;verticalAlign=middle;fontSize=6;" vertex="1" parent="1">
          <mxGeometry x="560" y="290" width="10" height="30" as="geometry" />
        </mxCell>
        <mxCell id="sxEvqwQps5us2x7c72E0-77" value="" style="shape=curlyBracket;whiteSpace=wrap;html=1;rounded=1;labelPosition=left;verticalLabelPosition=middle;align=right;verticalAlign=middle;fontSize=6;" vertex="1" parent="1">
          <mxGeometry x="640" y="280" width="20" height="60" as="geometry" />
        </mxCell>
        <mxCell id="sxEvqwQps5us2x7c72E0-78" value="" style="shape=curlyBracket;whiteSpace=wrap;html=1;rounded=1;labelPosition=left;verticalLabelPosition=middle;align=right;verticalAlign=middle;fontSize=6;" vertex="1" parent="1">
          <mxGeometry x="650" y="290" width="10" height="30" as="geometry" />
        </mxCell>
        <mxCell id="sxEvqwQps5us2x7c72E0-79" value="" style="shape=curlyBracket;whiteSpace=wrap;html=1;rounded=1;flipH=1;labelPosition=right;verticalLabelPosition=middle;align=left;verticalAlign=middle;fontSize=6;" vertex="1" parent="1">
          <mxGeometry x="720" y="280" width="20" height="60" as="geometry" />
        </mxCell>
        <mxCell id="sxEvqwQps5us2x7c72E0-80" value="" style="shape=curlyBracket;whiteSpace=wrap;html=1;rounded=1;flipH=1;labelPosition=right;verticalLabelPosition=middle;align=left;verticalAlign=middle;fontSize=6;" vertex="1" parent="1">
          <mxGeometry x="720" y="290" width="10" height="30" as="geometry" />
        </mxCell>
      </root>
    </mxGraphModel>
  </diagram>
</mxfile>
